<svg xmlns="http://www.w3.org/2000/svg" viewBox="30 42 452 452">
  <defs>
    <mask id="iconMask" maskUnits="userSpaceOnUse" x="0" y="0" width="512" height="512">
      <g transform="translate(256 280) scale(1.18) translate(-256 -280)">
        <path
          d="M96 336
             C88 336 82 330 82 322
             L82 296
             C82 288 87 281 95 279
             L118 273
             L150 214
             C158 199 174 190 191 190
             L321 190
             C338 190 354 199 362 214
             L394 273
             L417 279
             C425 281 430 288 430 296
             L430 322
             C430 330 424 336 416 336
             Z"
          fill="white"
        />
        <g fill="none" stroke="black" stroke-linecap="round">
          <path d="M205 178 C240 220 240 300 205 340" stroke-width="12" stroke-dasharray="6 14" />
          <path d="M307 178 C272 220 272 300 307 340" stroke-width="12" stroke-dasharray="6 14" />
        </g>
        <circle cx="152" cy="336" r="34" fill="black" />
        <circle cx="152" cy="336" r="22" fill="white" />
        <circle cx="152" cy="336" r="10" fill="black" />
        <circle cx="360" cy="336" r="34" fill="black" />
        <circle cx="360" cy="336" r="22" fill="white" />
        <circle cx="360" cy="336" r="10" fill="black" />
      </g>
    </mask>
  </defs>
  <rect x="0" y="0" width="512" height="512" fill="#3d5a80" mask="url(#iconMask)" />
</svg>
